<mxfile host="app.diagrams.net" modified="2022-08-13T14:24:06.410Z" agent="5.0 (Windows NT 10.0; Win64; x64) AppleWebKit/537.36 (KHTML, like Gecko) Chrome/103.0.0.0 Safari/537.36" etag="2zMFQEqbwwJ2fRIRqYQa" version="20.2.3" type="github">
  <diagram id="ky8-NgT48sntrBGbQjqh" name="第 1 页">
    <mxGraphModel dx="946" dy="500" grid="0" gridSize="10" guides="1" tooltips="1" connect="1" arrows="1" fold="1" page="1" pageScale="1" pageWidth="827" pageHeight="1169" math="0" shadow="0">
      <root>
        <mxCell id="0" />
        <mxCell id="1" parent="0" />
        <mxCell id="NElFIuJ0PPt1qtHgXGA5-2" value="" style="shape=table;html=1;whiteSpace=wrap;startSize=0;container=1;collapsible=0;childLayout=tableLayout;" parent="1" vertex="1">
          <mxGeometry x="33" y="291" width="272.08" height="131" as="geometry" />
        </mxCell>
        <mxCell id="NElFIuJ0PPt1qtHgXGA5-3" value="" style="shape=tableRow;horizontal=0;startSize=0;swimlaneHead=0;swimlaneBody=0;top=0;left=0;bottom=0;right=0;collapsible=0;dropTarget=0;fillColor=none;points=[[0,0.5],[1,0.5]];portConstraint=eastwest;" parent="NElFIuJ0PPt1qtHgXGA5-2" vertex="1">
          <mxGeometry width="272.08" height="27" as="geometry" />
        </mxCell>
        <mxCell id="NElFIuJ0PPt1qtHgXGA5-4" value="row_array" style="shape=partialRectangle;html=1;whiteSpace=wrap;connectable=0;fillColor=none;top=0;left=0;bottom=0;right=0;overflow=hidden;" parent="NElFIuJ0PPt1qtHgXGA5-3" vertex="1">
          <mxGeometry width="108" height="27" as="geometry">
            <mxRectangle width="108" height="27" as="alternateBounds" />
          </mxGeometry>
        </mxCell>
        <mxCell id="NElFIuJ0PPt1qtHgXGA5-25" value="磁盘里的数据行" style="shape=partialRectangle;html=1;whiteSpace=wrap;connectable=0;fillColor=none;top=0;left=0;bottom=0;right=0;overflow=hidden;" parent="NElFIuJ0PPt1qtHgXGA5-3" vertex="1">
          <mxGeometry x="108" width="164" height="27" as="geometry">
            <mxRectangle width="164" height="27" as="alternateBounds" />
          </mxGeometry>
        </mxCell>
        <mxCell id="NElFIuJ0PPt1qtHgXGA5-15" style="shape=tableRow;horizontal=0;startSize=0;swimlaneHead=0;swimlaneBody=0;top=0;left=0;bottom=0;right=0;collapsible=0;dropTarget=0;fillColor=none;points=[[0,0.5],[1,0.5]];portConstraint=eastwest;" parent="NElFIuJ0PPt1qtHgXGA5-2" vertex="1">
          <mxGeometry y="27" width="272.08" height="25" as="geometry" />
        </mxCell>
        <mxCell id="NElFIuJ0PPt1qtHgXGA5-16" value="row_insert_array" style="shape=partialRectangle;html=1;whiteSpace=wrap;connectable=0;fillColor=none;top=0;left=0;bottom=0;right=0;overflow=hidden;" parent="NElFIuJ0PPt1qtHgXGA5-15" vertex="1">
          <mxGeometry width="108" height="25" as="geometry">
            <mxRectangle width="108" height="25" as="alternateBounds" />
          </mxGeometry>
        </mxCell>
        <mxCell id="NElFIuJ0PPt1qtHgXGA5-26" value="插入数据用的跳表" style="shape=partialRectangle;html=1;whiteSpace=wrap;connectable=0;fillColor=none;top=0;left=0;bottom=0;right=0;overflow=hidden;" parent="NElFIuJ0PPt1qtHgXGA5-15" vertex="1">
          <mxGeometry x="108" width="164" height="25" as="geometry">
            <mxRectangle width="164" height="25" as="alternateBounds" />
          </mxGeometry>
        </mxCell>
        <mxCell id="NElFIuJ0PPt1qtHgXGA5-17" style="shape=tableRow;horizontal=0;startSize=0;swimlaneHead=0;swimlaneBody=0;top=0;left=0;bottom=0;right=0;collapsible=0;dropTarget=0;fillColor=none;points=[[0,0.5],[1,0.5]];portConstraint=eastwest;" parent="NElFIuJ0PPt1qtHgXGA5-2" vertex="1">
          <mxGeometry y="52" width="272.08" height="27" as="geometry" />
        </mxCell>
        <mxCell id="NElFIuJ0PPt1qtHgXGA5-18" value="row_update_array" style="shape=partialRectangle;html=1;whiteSpace=wrap;connectable=0;fillColor=none;top=0;left=0;bottom=0;right=0;overflow=hidden;" parent="NElFIuJ0PPt1qtHgXGA5-17" vertex="1">
          <mxGeometry width="108" height="27" as="geometry">
            <mxRectangle width="108" height="27" as="alternateBounds" />
          </mxGeometry>
        </mxCell>
        <mxCell id="NElFIuJ0PPt1qtHgXGA5-27" value="更新数据用的mvcc数组" style="shape=partialRectangle;html=1;whiteSpace=wrap;connectable=0;fillColor=none;top=0;left=0;bottom=0;right=0;overflow=hidden;" parent="NElFIuJ0PPt1qtHgXGA5-17" vertex="1">
          <mxGeometry x="108" width="164" height="27" as="geometry">
            <mxRectangle width="164" height="27" as="alternateBounds" />
          </mxGeometry>
        </mxCell>
        <mxCell id="NElFIuJ0PPt1qtHgXGA5-19" style="shape=tableRow;horizontal=0;startSize=0;swimlaneHead=0;swimlaneBody=0;top=0;left=0;bottom=0;right=0;collapsible=0;dropTarget=0;fillColor=none;points=[[0,0.5],[1,0.5]];portConstraint=eastwest;" parent="NElFIuJ0PPt1qtHgXGA5-2" vertex="1">
          <mxGeometry y="79" width="272.08" height="25" as="geometry" />
        </mxCell>
        <mxCell id="NElFIuJ0PPt1qtHgXGA5-20" value="modify" style="shape=partialRectangle;html=1;whiteSpace=wrap;connectable=0;fillColor=none;top=0;left=0;bottom=0;right=0;overflow=hidden;" parent="NElFIuJ0PPt1qtHgXGA5-19" vertex="1">
          <mxGeometry width="108" height="25" as="geometry">
            <mxRectangle width="108" height="25" as="alternateBounds" />
          </mxGeometry>
        </mxCell>
        <mxCell id="NElFIuJ0PPt1qtHgXGA5-28" value="脏页标记" style="shape=partialRectangle;html=1;whiteSpace=wrap;connectable=0;fillColor=none;top=0;left=0;bottom=0;right=0;overflow=hidden;" parent="NElFIuJ0PPt1qtHgXGA5-19" vertex="1">
          <mxGeometry x="108" width="164" height="25" as="geometry">
            <mxRectangle width="164" height="25" as="alternateBounds" />
          </mxGeometry>
        </mxCell>
        <mxCell id="NElFIuJ0PPt1qtHgXGA5-21" style="shape=tableRow;horizontal=0;startSize=0;swimlaneHead=0;swimlaneBody=0;top=0;left=0;bottom=0;right=0;collapsible=0;dropTarget=0;fillColor=none;points=[[0,0.5],[1,0.5]];portConstraint=eastwest;" parent="NElFIuJ0PPt1qtHgXGA5-2" vertex="1">
          <mxGeometry y="104" width="272.08" height="27" as="geometry" />
        </mxCell>
        <mxCell id="NElFIuJ0PPt1qtHgXGA5-22" value="dsk" style="shape=partialRectangle;html=1;whiteSpace=wrap;connectable=0;fillColor=none;top=0;left=0;bottom=0;right=0;overflow=hidden;" parent="NElFIuJ0PPt1qtHgXGA5-21" vertex="1">
          <mxGeometry width="108" height="27" as="geometry">
            <mxRectangle width="108" height="27" as="alternateBounds" />
          </mxGeometry>
        </mxCell>
        <mxCell id="NElFIuJ0PPt1qtHgXGA5-29" value="和磁盘页的关联对象" style="shape=partialRectangle;html=1;whiteSpace=wrap;connectable=0;fillColor=none;top=0;left=0;bottom=0;right=0;overflow=hidden;" parent="NElFIuJ0PPt1qtHgXGA5-21" vertex="1">
          <mxGeometry x="108" width="164" height="27" as="geometry">
            <mxRectangle width="164" height="27" as="alternateBounds" />
          </mxGeometry>
        </mxCell>
        <mxCell id="NElFIuJ0PPt1qtHgXGA5-30" value="&lt;span style=&quot;color: rgb(34, 34, 34); font-family: system-ui, -apple-system, BlinkMacSystemFont, &amp;quot;Helvetica Neue&amp;quot;, &amp;quot;PingFang SC&amp;quot;, &amp;quot;Hiragino Sans GB&amp;quot;, &amp;quot;Microsoft YaHei UI&amp;quot;, &amp;quot;Microsoft YaHei&amp;quot;, Arial, sans-serif; font-size: 14px; letter-spacing: 0.544px; text-align: justify; background-color: rgb(255, 255, 255);&quot;&gt;wt_page&lt;/span&gt;" style="text;html=1;strokeColor=none;fillColor=none;align=center;verticalAlign=middle;whiteSpace=wrap;rounded=0;" parent="1" vertex="1">
          <mxGeometry x="135" y="261" width="60" height="30" as="geometry" />
        </mxCell>
        <mxCell id="Hq6i0a6-mBsmWcUOcupN-2" value="" style="shape=table;html=1;whiteSpace=wrap;startSize=0;container=1;collapsible=0;childLayout=tableLayout;" vertex="1" parent="1">
          <mxGeometry x="388.5" y="237" width="216" height="26" as="geometry" />
        </mxCell>
        <mxCell id="Hq6i0a6-mBsmWcUOcupN-3" value="" style="shape=tableRow;horizontal=0;startSize=0;swimlaneHead=0;swimlaneBody=0;top=0;left=0;bottom=0;right=0;collapsible=0;dropTarget=0;fillColor=none;points=[[0,0.5],[1,0.5]];portConstraint=eastwest;" vertex="1" parent="Hq6i0a6-mBsmWcUOcupN-2">
          <mxGeometry width="216" height="26" as="geometry" />
        </mxCell>
        <mxCell id="Hq6i0a6-mBsmWcUOcupN-4" value="k = 1" style="shape=partialRectangle;html=1;whiteSpace=wrap;connectable=0;fillColor=none;top=0;left=0;bottom=0;right=0;overflow=hidden;" vertex="1" parent="Hq6i0a6-mBsmWcUOcupN-3">
          <mxGeometry width="54" height="26" as="geometry">
            <mxRectangle width="54" height="26" as="alternateBounds" />
          </mxGeometry>
        </mxCell>
        <mxCell id="Hq6i0a6-mBsmWcUOcupN-23" value="k = 10" style="shape=partialRectangle;html=1;whiteSpace=wrap;connectable=0;fillColor=none;top=0;left=0;bottom=0;right=0;overflow=hidden;" vertex="1" parent="Hq6i0a6-mBsmWcUOcupN-3">
          <mxGeometry x="54" width="54" height="26" as="geometry">
            <mxRectangle width="54" height="26" as="alternateBounds" />
          </mxGeometry>
        </mxCell>
        <mxCell id="Hq6i0a6-mBsmWcUOcupN-30" value="k = 20" style="shape=partialRectangle;html=1;whiteSpace=wrap;connectable=0;fillColor=none;top=0;left=0;bottom=0;right=0;overflow=hidden;" vertex="1" parent="Hq6i0a6-mBsmWcUOcupN-3">
          <mxGeometry x="108" width="54" height="26" as="geometry">
            <mxRectangle width="54" height="26" as="alternateBounds" />
          </mxGeometry>
        </mxCell>
        <mxCell id="Hq6i0a6-mBsmWcUOcupN-31" value="k = 30" style="shape=partialRectangle;html=1;whiteSpace=wrap;connectable=0;fillColor=none;top=0;left=0;bottom=0;right=0;overflow=hidden;" vertex="1" parent="Hq6i0a6-mBsmWcUOcupN-3">
          <mxGeometry x="162" width="54" height="26" as="geometry">
            <mxRectangle width="54" height="26" as="alternateBounds" />
          </mxGeometry>
        </mxCell>
        <mxCell id="Hq6i0a6-mBsmWcUOcupN-32" value="&lt;span style=&quot;color: rgb(34, 34, 34); font-family: system-ui, -apple-system, BlinkMacSystemFont, &amp;quot;Helvetica Neue&amp;quot;, &amp;quot;PingFang SC&amp;quot;, &amp;quot;Hiragino Sans GB&amp;quot;, &amp;quot;Microsoft YaHei UI&amp;quot;, &amp;quot;Microsoft YaHei&amp;quot;, Arial, sans-serif; font-size: 14px; letter-spacing: 0.544px; text-align: justify; background-color: rgb(255, 255, 255);&quot;&gt;row_array&lt;/span&gt;" style="text;html=1;strokeColor=none;fillColor=none;align=center;verticalAlign=middle;whiteSpace=wrap;rounded=0;" vertex="1" parent="1">
          <mxGeometry x="462.5" y="207" width="68" height="30" as="geometry" />
        </mxCell>
        <mxCell id="Hq6i0a6-mBsmWcUOcupN-33" value="" style="shape=table;html=1;whiteSpace=wrap;startSize=0;container=1;collapsible=0;childLayout=tableLayout;" vertex="1" parent="1">
          <mxGeometry x="386" y="316" width="221" height="24" as="geometry" />
        </mxCell>
        <mxCell id="Hq6i0a6-mBsmWcUOcupN-34" value="" style="shape=tableRow;horizontal=0;startSize=0;swimlaneHead=0;swimlaneBody=0;top=0;left=0;bottom=0;right=0;collapsible=0;dropTarget=0;fillColor=none;points=[[0,0.5],[1,0.5]];portConstraint=eastwest;" vertex="1" parent="Hq6i0a6-mBsmWcUOcupN-33">
          <mxGeometry width="221" height="24" as="geometry" />
        </mxCell>
        <mxCell id="Hq6i0a6-mBsmWcUOcupN-35" value="[2, 9]" style="shape=partialRectangle;html=1;whiteSpace=wrap;connectable=0;fillColor=none;top=0;left=0;bottom=0;right=0;overflow=hidden;" vertex="1" parent="Hq6i0a6-mBsmWcUOcupN-34">
          <mxGeometry width="74" height="24" as="geometry">
            <mxRectangle width="74" height="24" as="alternateBounds" />
          </mxGeometry>
        </mxCell>
        <mxCell id="Hq6i0a6-mBsmWcUOcupN-36" value="[11,19]" style="shape=partialRectangle;html=1;whiteSpace=wrap;connectable=0;fillColor=none;top=0;left=0;bottom=0;right=0;overflow=hidden;" vertex="1" parent="Hq6i0a6-mBsmWcUOcupN-34">
          <mxGeometry x="74" width="73" height="24" as="geometry">
            <mxRectangle width="73" height="24" as="alternateBounds" />
          </mxGeometry>
        </mxCell>
        <mxCell id="Hq6i0a6-mBsmWcUOcupN-37" value="[21, 29]" style="shape=partialRectangle;html=1;whiteSpace=wrap;connectable=0;fillColor=none;top=0;left=0;bottom=0;right=0;overflow=hidden;" vertex="1" parent="Hq6i0a6-mBsmWcUOcupN-34">
          <mxGeometry x="147" width="74" height="24" as="geometry">
            <mxRectangle width="74" height="24" as="alternateBounds" />
          </mxGeometry>
        </mxCell>
        <mxCell id="Hq6i0a6-mBsmWcUOcupN-39" value="&lt;div style=&quot;text-align: justify;&quot;&gt;&lt;font face=&quot;system-ui, -apple-system, BlinkMacSystemFont, Helvetica Neue, PingFang SC, Hiragino Sans GB, Microsoft YaHei UI, Microsoft YaHei, Arial, sans-serif&quot; color=&quot;#222222&quot;&gt;&lt;span style=&quot;font-size: 14px; letter-spacing: 0.544px; background-color: rgb(255, 255, 255);&quot;&gt;row_insert_array&lt;/span&gt;&lt;/font&gt;&lt;/div&gt;" style="text;html=1;strokeColor=none;fillColor=none;align=center;verticalAlign=middle;whiteSpace=wrap;rounded=0;" vertex="1" parent="1">
          <mxGeometry x="438" y="284" width="117" height="29" as="geometry" />
        </mxCell>
        <mxCell id="Hq6i0a6-mBsmWcUOcupN-40" value="" style="shape=table;html=1;whiteSpace=wrap;startSize=0;container=1;collapsible=0;childLayout=tableLayout;" vertex="1" parent="1">
          <mxGeometry x="388.5" y="388" width="216" height="26" as="geometry" />
        </mxCell>
        <mxCell id="Hq6i0a6-mBsmWcUOcupN-41" value="" style="shape=tableRow;horizontal=0;startSize=0;swimlaneHead=0;swimlaneBody=0;top=0;left=0;bottom=0;right=0;collapsible=0;dropTarget=0;fillColor=none;points=[[0,0.5],[1,0.5]];portConstraint=eastwest;" vertex="1" parent="Hq6i0a6-mBsmWcUOcupN-40">
          <mxGeometry width="216" height="26" as="geometry" />
        </mxCell>
        <mxCell id="Hq6i0a6-mBsmWcUOcupN-42" value="k = 1" style="shape=partialRectangle;html=1;whiteSpace=wrap;connectable=0;fillColor=none;top=0;left=0;bottom=0;right=0;overflow=hidden;" vertex="1" parent="Hq6i0a6-mBsmWcUOcupN-41">
          <mxGeometry width="54" height="26" as="geometry">
            <mxRectangle width="54" height="26" as="alternateBounds" />
          </mxGeometry>
        </mxCell>
        <mxCell id="Hq6i0a6-mBsmWcUOcupN-43" value="k = 10" style="shape=partialRectangle;html=1;whiteSpace=wrap;connectable=0;fillColor=none;top=0;left=0;bottom=0;right=0;overflow=hidden;" vertex="1" parent="Hq6i0a6-mBsmWcUOcupN-41">
          <mxGeometry x="54" width="54" height="26" as="geometry">
            <mxRectangle width="54" height="26" as="alternateBounds" />
          </mxGeometry>
        </mxCell>
        <mxCell id="Hq6i0a6-mBsmWcUOcupN-44" value="k = 20" style="shape=partialRectangle;html=1;whiteSpace=wrap;connectable=0;fillColor=none;top=0;left=0;bottom=0;right=0;overflow=hidden;" vertex="1" parent="Hq6i0a6-mBsmWcUOcupN-41">
          <mxGeometry x="108" width="54" height="26" as="geometry">
            <mxRectangle width="54" height="26" as="alternateBounds" />
          </mxGeometry>
        </mxCell>
        <mxCell id="Hq6i0a6-mBsmWcUOcupN-45" value="k = 30" style="shape=partialRectangle;html=1;whiteSpace=wrap;connectable=0;fillColor=none;top=0;left=0;bottom=0;right=0;overflow=hidden;" vertex="1" parent="Hq6i0a6-mBsmWcUOcupN-41">
          <mxGeometry x="162" width="54" height="26" as="geometry">
            <mxRectangle width="54" height="26" as="alternateBounds" />
          </mxGeometry>
        </mxCell>
        <mxCell id="Hq6i0a6-mBsmWcUOcupN-46" value="&lt;span style=&quot;color: rgb(34, 34, 34); font-family: system-ui, -apple-system, BlinkMacSystemFont, &amp;quot;Helvetica Neue&amp;quot;, &amp;quot;PingFang SC&amp;quot;, &amp;quot;Hiragino Sans GB&amp;quot;, &amp;quot;Microsoft YaHei UI&amp;quot;, &amp;quot;Microsoft YaHei&amp;quot;, Arial, sans-serif; font-size: 14px; letter-spacing: 0.544px; text-align: justify; background-color: rgb(255, 255, 255);&quot;&gt;row_update_array&lt;/span&gt;" style="text;html=1;strokeColor=none;fillColor=none;align=center;verticalAlign=middle;whiteSpace=wrap;rounded=0;" vertex="1" parent="1">
          <mxGeometry x="462.5" y="358" width="68" height="30" as="geometry" />
        </mxCell>
        <mxCell id="Hq6i0a6-mBsmWcUOcupN-65" style="edgeStyle=orthogonalEdgeStyle;rounded=0;orthogonalLoop=1;jettySize=auto;html=1;" edge="1" parent="1" source="Hq6i0a6-mBsmWcUOcupN-53">
          <mxGeometry relative="1" as="geometry">
            <mxPoint x="473.5" y="476.6542168978988" as="targetPoint" />
          </mxGeometry>
        </mxCell>
        <mxCell id="Hq6i0a6-mBsmWcUOcupN-53" value="" style="shape=table;html=1;whiteSpace=wrap;startSize=0;container=1;collapsible=0;childLayout=tableLayout;" vertex="1" parent="1">
          <mxGeometry x="419.5" y="435" width="108" height="21" as="geometry" />
        </mxCell>
        <mxCell id="Hq6i0a6-mBsmWcUOcupN-54" value="" style="shape=tableRow;horizontal=0;startSize=0;swimlaneHead=0;swimlaneBody=0;top=0;left=0;bottom=0;right=0;collapsible=0;dropTarget=0;fillColor=none;points=[[0,0.5],[1,0.5]];portConstraint=eastwest;" vertex="1" parent="Hq6i0a6-mBsmWcUOcupN-53">
          <mxGeometry width="108" height="21" as="geometry" />
        </mxCell>
        <mxCell id="Hq6i0a6-mBsmWcUOcupN-55" value="txn = 1&amp;nbsp; v = 8" style="shape=partialRectangle;html=1;whiteSpace=wrap;connectable=0;fillColor=none;top=0;left=0;bottom=0;right=0;overflow=hidden;" vertex="1" parent="Hq6i0a6-mBsmWcUOcupN-54">
          <mxGeometry width="108" height="21" as="geometry">
            <mxRectangle width="108" height="21" as="alternateBounds" />
          </mxGeometry>
        </mxCell>
        <mxCell id="Hq6i0a6-mBsmWcUOcupN-66" value="" style="shape=table;html=1;whiteSpace=wrap;startSize=0;container=1;collapsible=0;childLayout=tableLayout;" vertex="1" parent="1">
          <mxGeometry x="419.5" y="478" width="108" height="21" as="geometry" />
        </mxCell>
        <mxCell id="Hq6i0a6-mBsmWcUOcupN-67" value="" style="shape=tableRow;horizontal=0;startSize=0;swimlaneHead=0;swimlaneBody=0;top=0;left=0;bottom=0;right=0;collapsible=0;dropTarget=0;fillColor=none;points=[[0,0.5],[1,0.5]];portConstraint=eastwest;" vertex="1" parent="Hq6i0a6-mBsmWcUOcupN-66">
          <mxGeometry width="108" height="21" as="geometry" />
        </mxCell>
        <mxCell id="Hq6i0a6-mBsmWcUOcupN-68" value="txn = 2&amp;nbsp; v = 9" style="shape=partialRectangle;html=1;whiteSpace=wrap;connectable=0;fillColor=none;top=0;left=0;bottom=0;right=0;overflow=hidden;" vertex="1" parent="Hq6i0a6-mBsmWcUOcupN-67">
          <mxGeometry width="108" height="21" as="geometry">
            <mxRectangle width="108" height="21" as="alternateBounds" />
          </mxGeometry>
        </mxCell>
        <mxCell id="Hq6i0a6-mBsmWcUOcupN-69" style="edgeStyle=orthogonalEdgeStyle;rounded=0;orthogonalLoop=1;jettySize=auto;html=1;" edge="1" parent="1">
          <mxGeometry relative="1" as="geometry">
            <mxPoint x="473.5" y="434.6542168978988" as="targetPoint" />
            <mxPoint x="473.5" y="414" as="sourcePoint" />
          </mxGeometry>
        </mxCell>
        <mxCell id="Hq6i0a6-mBsmWcUOcupN-70" style="edgeStyle=orthogonalEdgeStyle;rounded=0;orthogonalLoop=1;jettySize=auto;html=1;" edge="1" parent="1">
          <mxGeometry relative="1" as="geometry">
            <mxPoint x="473.5" y="519.6542168978988" as="targetPoint" />
            <mxPoint x="473.5" y="499" as="sourcePoint" />
          </mxGeometry>
        </mxCell>
        <mxCell id="Hq6i0a6-mBsmWcUOcupN-71" value="" style="shape=table;html=1;whiteSpace=wrap;startSize=0;container=1;collapsible=0;childLayout=tableLayout;" vertex="1" parent="1">
          <mxGeometry x="419.5" y="519" width="108" height="21" as="geometry" />
        </mxCell>
        <mxCell id="Hq6i0a6-mBsmWcUOcupN-72" value="" style="shape=tableRow;horizontal=0;startSize=0;swimlaneHead=0;swimlaneBody=0;top=0;left=0;bottom=0;right=0;collapsible=0;dropTarget=0;fillColor=none;points=[[0,0.5],[1,0.5]];portConstraint=eastwest;" vertex="1" parent="Hq6i0a6-mBsmWcUOcupN-71">
          <mxGeometry width="108" height="21" as="geometry" />
        </mxCell>
        <mxCell id="Hq6i0a6-mBsmWcUOcupN-73" value="txn = 4&amp;nbsp; v = 4" style="shape=partialRectangle;html=1;whiteSpace=wrap;connectable=0;fillColor=none;top=0;left=0;bottom=0;right=0;overflow=hidden;" vertex="1" parent="Hq6i0a6-mBsmWcUOcupN-72">
          <mxGeometry width="108" height="21" as="geometry">
            <mxRectangle width="108" height="21" as="alternateBounds" />
          </mxGeometry>
        </mxCell>
        <mxCell id="Hq6i0a6-mBsmWcUOcupN-76" style="edgeStyle=orthogonalEdgeStyle;rounded=0;orthogonalLoop=1;jettySize=auto;html=1;" edge="1" parent="1" source="NElFIuJ0PPt1qtHgXGA5-15">
          <mxGeometry relative="1" as="geometry">
            <mxPoint x="380.8021955818965" y="330.4999999999999" as="targetPoint" />
          </mxGeometry>
        </mxCell>
        <mxCell id="Hq6i0a6-mBsmWcUOcupN-77" style="edgeStyle=orthogonalEdgeStyle;rounded=0;orthogonalLoop=1;jettySize=auto;html=1;entryX=0;entryY=0.5;entryDx=0;entryDy=0;" edge="1" parent="1" source="NElFIuJ0PPt1qtHgXGA5-3" target="Hq6i0a6-mBsmWcUOcupN-3">
          <mxGeometry relative="1" as="geometry" />
        </mxCell>
        <mxCell id="Hq6i0a6-mBsmWcUOcupN-78" style="edgeStyle=orthogonalEdgeStyle;rounded=0;orthogonalLoop=1;jettySize=auto;html=1;entryX=0;entryY=0.5;entryDx=0;entryDy=0;" edge="1" parent="1" source="NElFIuJ0PPt1qtHgXGA5-17" target="Hq6i0a6-mBsmWcUOcupN-41">
          <mxGeometry relative="1" as="geometry" />
        </mxCell>
      </root>
    </mxGraphModel>
  </diagram>
</mxfile>
